# Blender v2.80 (sub 75) OBJ File: 'E0104A069.blend'
# www.blender.org
mtllib glass.mtl
o Plane.003
v -2.300102 -1.639713 5.373311
v 1.996075 -1.639713 5.373311
v -2.300102 -1.639713 1.077133
v 1.996075 -1.639713 1.077133
v -1.152014 -1.292408 4.225222
v 0.847986 -1.292408 4.225222
v -1.152014 -1.292408 2.225222
v 0.847986 -1.292408 2.225222
v -0.440062 -0.554466 3.513270
v 0.136034 -0.554466 3.513270
v -0.440062 -0.554466 2.937174
v 0.136034 -0.554466 2.937174
v -0.440062 2.613591 3.513270
v 0.136034 2.613591 3.513270
v -0.440062 2.613591 2.937174
v 0.136034 2.613591 2.937174
v -1.545979 3.049117 4.619187
v 1.241951 3.049117 4.619187
v -1.545979 3.049117 1.831257
v 1.241951 3.049117 1.831257
v -1.545979 6.622063 4.619187
v 1.241951 6.622063 4.619187
v -1.545979 6.622063 1.831257
v 1.241951 6.622063 1.831257
v -1.298283 6.622063 4.371491
v 0.994255 6.622063 4.371491
v -1.298283 6.622063 2.078953
v 0.994255 6.622063 2.078953
v -1.298283 2.121224 4.371491
v 0.994255 2.121224 4.371491
v -1.298283 2.121224 2.078953
v 0.994255 2.121224 2.078953
vn 0.0000 -1.0000 0.0000
vn 0.7197 0.6943 0.0000
vn 0.2895 0.9572 0.0000
vn -0.2895 0.9572 0.0000
vn 0.0000 0.9572 -0.2895
vn 0.0000 0.9572 0.2895
vn 0.0000 0.0000 -1.0000
vn -0.7197 0.6943 0.0000
vn 0.0000 0.6943 -0.7197
vn 0.0000 0.6943 0.7197
vn 0.3664 -0.9304 0.0000
vn 0.0000 0.0000 1.0000
vn 1.0000 0.0000 0.0000
vn -1.0000 0.0000 0.0000
vn -0.3664 -0.9304 0.0000
vn 0.0000 -0.9304 -0.3664
vn 0.0000 -0.9304 0.3664
vn 0.0000 1.0000 0.0000
usemtl Material.002
s off
f 3//1 2//1 1//1
f 8//2 10//2 6//2
f 4//3 6//3 2//3
f 1//4 7//4 3//4
f 3//5 8//5 4//5
f 2//6 5//6 1//6
f 11//7 16//7 12//7
f 5//8 11//8 7//8
f 7//9 12//9 8//9
f 6//10 9//10 5//10
f 14//11 20//11 18//11
f 10//12 13//12 9//12
f 12//13 14//13 10//13
f 9//14 15//14 11//14
f 20//13 22//13 18//13
f 15//15 17//15 19//15
f 16//16 19//16 20//16
f 13//17 18//17 17//17
f 23//18 28//18 24//18
f 17//14 23//14 19//14
f 19//7 24//7 20//7
f 18//12 21//12 17//12
f 28//14 30//14 26//14
f 22//18 25//18 21//18
f 24//18 26//18 22//18
f 21//18 27//18 23//18
f 30//18 31//18 29//18
f 25//13 31//13 27//13
f 27//12 32//12 28//12
f 26//7 29//7 25//7
f 3//1 4//1 2//1
f 8//2 12//2 10//2
f 4//3 8//3 6//3
f 1//4 5//4 7//4
f 3//5 7//5 8//5
f 2//6 6//6 5//6
f 11//7 15//7 16//7
f 5//8 9//8 11//8
f 7//9 11//9 12//9
f 6//10 10//10 9//10
f 14//11 16//11 20//11
f 10//12 14//12 13//12
f 12//13 16//13 14//13
f 9//14 13//14 15//14
f 20//13 24//13 22//13
f 15//15 13//15 17//15
f 16//16 15//16 19//16
f 13//17 14//17 18//17
f 23//18 27//18 28//18
f 17//14 21//14 23//14
f 19//7 23//7 24//7
f 18//12 22//12 21//12
f 28//14 32//14 30//14
f 22//18 26//18 25//18
f 24//18 28//18 26//18
f 21//18 25//18 27//18
f 30//18 32//18 31//18
f 25//13 29//13 31//13
f 27//12 31//12 32//12
f 26//7 30//7 29//7
o Plane.002
v -1.910876 -0.223981 -3.256880
v 3.956590 -0.223981 -3.256880
v -1.910876 -0.223981 -9.124346
v 3.956590 -0.223981 -9.124346
v 0.022857 0.165057 -5.190613
v 2.022857 0.165057 -5.190613
v 0.022857 0.165057 -7.190613
v 2.022857 0.165057 -7.190613
v 0.741582 0.165057 -5.909338
v 1.304131 0.165057 -5.909338
v 0.741582 0.165057 -6.471887
v 1.304131 0.165057 -6.471887
v 0.741582 5.456314 -5.909338
v 1.304131 5.456314 -5.909338
v 0.741582 5.456314 -6.471887
v 1.304131 5.456314 -6.471887
v -0.386600 5.456314 -4.781157
v 2.432313 5.456314 -4.781157
v -0.386600 5.456314 -7.600069
v 2.432313 5.456314 -7.600069
v -0.386600 9.178083 -4.781157
v 2.432313 9.178083 -4.781157
v -0.386600 9.178083 -7.600069
v 2.432313 9.178083 -7.600069
v -0.123582 9.178083 -5.044174
v 2.169295 9.178083 -5.044174
v -0.123582 9.178083 -7.337051
v 2.169295 9.178083 -7.337051
v -0.152155 4.479513 -5.018112
v 2.140722 4.479513 -5.018112
v -0.152155 4.479513 -7.310989
v 2.140722 4.479513 -7.310989
vn 0.0000 -1.0000 0.0000
vn 0.0000 1.0000 -0.0000
vn -0.1972 0.9804 0.0000
vn 0.0000 0.9804 -0.1972
vn 0.0000 0.9804 0.1972
vn 0.1972 0.9804 0.0000
vn 1.0000 0.0000 0.0000
vn -1.0000 0.0000 0.0000
vn 0.0000 0.0000 -1.0000
vn 0.0000 0.0000 1.0000
vn 1.0000 -0.0061 0.0000
vn 0.0000 0.0055 1.0000
vn 0.0000 -0.0055 -1.0000
vn -1.0000 0.0061 0.0000
usemtl Material
s off
f 35//19 34//19 33//19
f 39//20 44//20 40//20
f 33//21 39//21 35//21
f 35//22 40//22 36//22
f 34//23 37//23 33//23
f 36//24 38//24 34//24
f 44//25 46//25 42//25
f 38//20 41//20 37//20
f 40//20 42//20 38//20
f 37//20 43//20 39//20
f 48//19 50//19 46//19
f 41//26 47//26 43//26
f 43//27 48//27 44//27
f 42//28 45//28 41//28
f 51//27 56//27 52//27
f 45//19 51//19 47//19
f 47//19 52//19 48//19
f 46//19 49//19 45//19
f 56//20 58//20 54//20
f 50//28 53//28 49//28
f 52//25 54//25 50//25
f 49//26 55//26 51//26
f 57//29 63//29 59//29
f 53//20 59//20 55//20
f 55//20 60//20 56//20
f 54//20 57//20 53//20
f 62//20 63//20 61//20
f 59//30 64//30 60//30
f 57//31 62//31 61//31
f 58//32 64//32 62//32
f 35//19 36//19 34//19
f 39//20 43//20 44//20
f 33//21 37//21 39//21
f 35//22 39//22 40//22
f 34//23 38//23 37//23
f 36//24 40//24 38//24
f 44//25 48//25 46//25
f 38//20 42//20 41//20
f 40//20 44//20 42//20
f 37//20 41//20 43//20
f 48//19 52//19 50//19
f 41//26 45//26 47//26
f 43//27 47//27 48//27
f 42//28 46//28 45//28
f 51//27 55//27 56//27
f 45//19 49//19 51//19
f 47//19 51//19 52//19
f 46//19 50//19 49//19
f 56//20 60//20 58//20
f 50//28 54//28 53//28
f 52//25 56//25 54//25
f 49//26 53//26 55//26
f 57//29 61//29 63//29
f 53//20 57//20 59//20
f 55//20 59//20 60//20
f 54//20 58//20 57//20
f 62//20 64//20 63//20
f 59//30 63//30 64//30
f 57//31 58//31 62//31
f 58//32 60//32 64//32
o Plane
v -1.650791 0.460688 1.305094
v 1.650791 0.460688 1.305094
v -1.650791 0.460688 -1.996488
v 1.650791 0.460688 -1.996488
v -0.296791 0.843977 -0.048906
v 0.296791 0.843977 -0.048906
v -0.296791 0.843977 -0.642488
v 0.296791 0.843977 -0.642488
v -0.352434 3.778354 0.006737
v 0.352434 3.778354 0.006737
v -0.352434 3.778354 -0.698131
v 0.352434 3.778354 -0.698131
v -1.377829 3.796395 1.032132
v 1.377829 3.796395 1.032132
v -1.377829 3.796395 -1.723526
v 1.377829 3.796395 -1.723526
v -1.393488 7.390740 1.047791
v 1.393488 7.390740 1.047791
v -1.393488 7.390740 -1.739185
v 1.393488 7.390740 -1.739185
v -1.210996 7.389663 0.865299
v 1.210996 7.389663 0.865299
v -1.210996 7.389663 -1.556693
v 1.210996 7.389663 -1.556693
v -1.210996 3.153177 0.865299
v 1.210996 3.153177 0.865299
v -1.210996 3.153177 -1.556693
v 1.210996 3.153177 -1.556693
v -1.879767 0.264690 -2.225464
v -1.879767 0.264690 1.534070
v 1.879767 0.264690 1.534070
v 1.879767 0.264690 -2.225464
vn 0.6503 0.7597 0.0000
vn 0.9998 -0.0190 0.0000
vn 0.0000 0.9622 -0.2724
vn 0.0000 0.9622 0.2724
vn 0.2724 0.9622 0.0000
vn -0.2724 0.9622 0.0000
vn 0.0176 -0.9998 0.0000
vn -0.9998 -0.0190 0.0000
vn 0.0000 -0.0190 -0.9998
vn 0.0000 -0.0190 0.9998
vn 0.0000 -0.0044 -1.0000
vn -0.0176 -0.9998 0.0000
vn 0.0000 -0.9998 -0.0176
vn 0.0000 -0.9998 0.0176
vn -0.0059 1.0000 0.0000
vn 0.0000 -0.0044 1.0000
vn 1.0000 -0.0044 0.0000
vn -1.0000 -0.0044 0.0000
vn 1.0000 0.0000 0.0000
vn 0.0059 1.0000 0.0000
vn 0.0000 1.0000 0.0059
vn 0.0000 1.0000 -0.0059
vn 0.0000 1.0000 0.0000
vn 0.0000 0.0000 1.0000
vn 0.0000 0.0000 -1.0000
vn -1.0000 0.0000 0.0000
vn 0.0000 -1.0000 0.0000
vn -0.6503 0.7597 0.0000
vn 0.0000 0.7597 -0.6503
vn 0.0000 0.7597 0.6503
usemtl Material.001
s off
f 66//33 96//33 68//33
f 72//34 74//34 70//34
f 67//35 72//35 68//35
f 66//36 69//36 65//36
f 68//37 70//37 66//37
f 65//38 71//38 67//38
f 76//39 78//39 74//39
f 69//40 75//40 71//40
f 71//41 76//41 72//41
f 70//42 73//42 69//42
f 79//43 84//43 80//43
f 73//44 79//44 75//44
f 75//45 80//45 76//45
f 74//46 77//46 73//46
f 84//47 86//47 82//47
f 78//48 81//48 77//48
f 80//49 82//49 78//49
f 77//50 83//50 79//50
f 85//51 91//51 87//51
f 81//52 87//52 83//52
f 83//53 88//53 84//53
f 82//54 85//54 81//54
f 90//55 91//55 89//55
f 87//56 92//56 88//56
f 86//57 89//57 85//57
f 88//58 90//58 86//58
f 93//59 95//59 94//59
f 67//60 94//60 65//60
f 68//61 93//61 67//61
f 65//62 95//62 66//62
f 66//33 95//33 96//33
f 72//34 76//34 74//34
f 67//35 71//35 72//35
f 66//36 70//36 69//36
f 68//37 72//37 70//37
f 65//38 69//38 71//38
f 76//39 80//39 78//39
f 69//40 73//40 75//40
f 71//41 75//41 76//41
f 70//42 74//42 73//42
f 79//43 83//43 84//43
f 73//44 77//44 79//44
f 75//45 79//45 80//45
f 74//46 78//46 77//46
f 84//47 88//47 86//47
f 78//48 82//48 81//48
f 80//49 84//49 82//49
f 77//50 81//50 83//50
f 85//51 89//51 91//51
f 81//52 85//52 87//52
f 83//53 87//53 88//53
f 82//54 86//54 85//54
f 90//55 92//55 91//55
f 87//56 91//56 92//56
f 86//57 90//57 89//57
f 88//58 92//58 90//58
f 93//59 96//59 95//59
f 67//60 93//60 94//60
f 68//61 96//61 93//61
f 65//62 94//62 95//62
